<svg width="1100" height="1100" viewBox="0 0 1100 1100" fill="none" xmlns="http://www.w3.org/2000/svg">
<rect width="1100" height="1100" rx="120" fill="black"/>
<path d="M617.345 122.089L617.707 122.326C633.626 132.521 660.735 140.995 667.405 161.22C670.756 171.381 658.631 183.092 672.385 188.993C670.161 189.88 667.008 188.435 664.97 187.471C659.7 184.98 659.53 175.712 659.661 170.827C660.087 154.902 651.403 149.473 640.141 140.661C644.691 146.341 647.243 149.489 649.77 156.49C653.869 167.844 649.553 180.768 653.795 191.579C654.242 192.719 656.332 194.88 657.251 195.846C643.31 187.731 644.963 176.909 642.809 162.845C636.789 123.541 583.2 121.09 552.5 125.446C551.445 131.232 550.95 136.191 554.8 141.322C568.96 160.182 597.32 152.834 613.548 169.295C620.583 176.394 621.297 179.926 621.655 189.187C616.688 179.267 609.904 174.365 599.42 171.109C573.175 162.957 541.87 162.086 545.775 125.855C526.4 131.046 507.525 134.042 488.45 141.005C504.595 141.842 516.135 141.863 532.28 140.939C521.705 146.511 513.785 148.777 501.85 149.437C480.065 150.643 457.9 140.658 438.64 155.471C436.31 157.265 432.155 160.101 431.4 163.003C438.665 167.998 462.76 163.164 471.84 162.798C494.65 161.881 518.02 166.233 536.8 149.987C531.145 159.272 525.465 166.381 514.3 169.16C501.26 172.406 488.77 167.124 475.775 167.212C457.525 167.243 439.7 183.414 422.495 170.439C421.07 173.345 420.375 174.76 419.365 177.857C425.88 189.366 438.385 191.706 450.435 194.409C465.055 197.688 476.485 197.372 490.985 194.066C472.245 203.991 454.545 197.811 434.82 194.035C428.425 192.811 421.74 192.452 415.36 191.372C431.295 200.117 449.835 196.611 451.44 220.777C445.12 209.672 441.105 204.985 428.045 201.662C420.64 199.778 415.49 198.745 409.725 193.2C407.64 191.193 402.635 183.822 400.715 184.539C399.705 187.708 402.65 192.534 403.675 195.386C406.325 202.753 417.34 206.771 424.525 208.168C450.56 213.227 440.43 239.012 459.825 249.706C473.3 257.132 485.11 256.517 499.06 250.636C492.45 256.746 483.315 261.091 474.06 260.642C464.745 260.189 456.415 256.791 449.71 249.868C437.405 237.162 446.055 217.626 422.12 215.598C413.43 214.861 403.13 220.308 396.46 213.251C392.005 208.538 391.855 203.119 390.935 197.414C382.22 213.57 387.62 226.869 407.16 223.848C440.965 218.622 427.26 254.268 451.605 263.955C465.835 269.692 477.7 269.743 491.48 263.126C470.855 280.463 440.27 282.591 421.15 261.677C413.665 253.493 418.035 236.377 406.53 235.531C397.38 234.858 391.24 237.935 381.64 234.332C387.22 239.873 389.62 240.841 397.7 241.408C392.1 244.134 386.33 245.888 380.41 243.333C364.88 236.632 366.555 220.367 370.935 208.024C361.19 217.541 354.05 235.46 365.19 246.746C373.815 255.641 387.14 254.973 397.195 260.61C403.725 264.274 409.595 271.973 414.285 277.777C428.655 295.546 453.225 299.547 470.89 283.834C459.705 301.96 436.985 314.123 417.41 301.17C410.355 296.502 403.705 291.188 395.995 287.696C390.175 285.55 385.075 284.18 378.36 284.639C367.2 285.401 346.55 297.962 338.535 284.473C335.635 279.588 337.07 270.504 338.375 265.037C333.025 272.312 331.15 276.191 332.2 285.61C333.49 297.196 343.11 300.743 353.365 298.607C366.835 295.803 379.97 290.345 392.715 298.82C393.985 299.62 396.615 301.777 397.045 303.286C395.125 302.284 397.105 303.412 395.405 302.228C389.3 297.981 380.52 295.93 373.175 296.898C369.42 297.393 365.625 299 362.275 300.512C385.33 302.855 395.07 310.053 400.875 332.735C403.525 343.101 415.455 355.773 426.4 355.518C441.145 356.512 448.735 344.591 454.79 333.15C452.725 341.15 451.46 348.226 445.38 353.879C443.685 355.455 439.51 360.337 438.645 362.238C436.72 366.463 437.24 370.835 433.48 374.716C430.19 378.113 423.26 380.804 420.745 384.665C417.385 389.831 418.76 398.632 417.7 404.423C416.45 411.261 412.33 418.124 411.295 425.054C410.73 428.838 410.63 434.259 410.87 438.09C416.245 422.929 421.365 419.992 428.33 407.03L428.14 407.788C426.715 413.325 424.16 418.153 422.235 423.469C418.6 433.529 418.74 445.92 424.195 455.305C436.23 476.013 463.205 466.431 460.865 497.459C459.48 491.496 457.025 484.328 451.325 481.768C435.545 474.681 429.44 476.821 418.27 462.087C420.985 471.199 422.69 477.442 431.69 482.276C438.875 486.135 449.68 488.604 452.36 497.253C454.71 504.849 448.735 512.156 444.2 517.37C444.08 506.843 442.345 501.313 432.315 496.338C423.865 492.148 419.75 488.85 414.78 480.796C417.47 495.828 427.895 507.005 428.47 519.095C429.67 544.415 397.9 561.355 422.805 587.51C413 560.835 425.485 554.485 440.16 536.18C434.06 552.29 421.825 563.64 430.615 581.89C434.905 590.8 443.6 600.32 438.98 610.635C434.36 620.945 433.475 624.78 439.485 635.035C439.525 626.485 442.735 620.26 447.285 613.335C461.285 592.025 433.535 581.715 438.485 561.66C439.22 558.685 440.71 554.74 443.34 552.81C442.425 555.685 441.33 557.755 440.84 560.835C439.13 571.53 445.6 578.315 452.025 585.795C451.995 569.595 457.125 564.455 469.235 555.05C465.705 560.755 461.925 566.565 460.475 573.215C458.98 580.045 461.07 586.905 461.23 593.75C465.01 585.745 465.865 582.02 467.91 573.55C469.105 595.715 469.805 600.435 454.825 618.2C443.18 632.015 447.02 650.66 455.85 665.175C449.83 627.89 495.075 625.99 488.775 589.205C486.705 577.13 482.02 565.25 490.595 554.285C506.105 534.46 533.58 544.145 533.245 508.566C535.93 517.235 537.345 525.945 532.94 534.56C525.825 548.475 505.125 547.98 497.235 560.39C489.935 571.875 496.05 587.34 493.715 602.15C489.325 629.935 459.555 639.08 466.35 668.025C467.32 672.16 471.735 679.905 471.735 683.36C471.735 696.31 467.08 696.035 469.73 710.44C471.405 699.255 474.355 700.44 477.385 690.685C478.255 687.88 477.66 679.195 477.39 675.9C476.205 661.71 482.415 651.195 493.825 643.025C506.33 634.075 516.945 628.49 519.62 611.81C521.45 600.43 516.59 592.335 518.735 581.64C521.025 570.22 532.63 564.165 539.975 556.32C543.665 552.38 545.675 548.715 547.845 543.79C546.7 554.735 546.17 563.245 541.555 573.44C538.82 579.48 529.34 587.01 529.31 591.59C530.03 604.885 538.23 606.67 530.785 621.24C521.805 638.805 492.615 650.32 489.575 670.05C483.9 706.875 517.595 703.565 497.745 745.355C504.98 738.975 514.015 730.64 513.735 720.38C512.915 689.985 489.895 690.285 507.825 656.27C504.17 672.605 503.585 680.855 512.99 695.745C514.355 697.875 515.77 699.98 517.225 702.05C514.24 683.345 516.915 660.235 532 647.37C547.285 634.34 558.475 628.61 560.68 606.755C567.95 651.07 527.52 643.08 532.88 680.445C524.82 693.21 524.86 688.92 525.715 706.135C527.44 701.335 528.24 699.895 531.645 695.855L531.545 696.5C526.685 728.62 541.885 732.435 510.04 757.485C517.605 754.8 525.26 752.31 531.33 746.775C546.13 733.28 539 711.135 540.565 693.23L540.69 694.03C541.67 700.035 543.83 705.46 545.295 711.285C548.035 722.15 546.855 734.45 540.18 743.705C533.95 752.34 523.505 757.225 513.425 759.665C517.585 763.13 521.46 765.97 525.82 769.155C534.98 767.42 543.74 760.44 549.01 752.905C562.005 734.325 550.845 717.11 557.46 698.485C560.76 689.2 570.2 682.08 576.09 674.285C581.245 667.455 584.185 660.7 587.325 652.79C587.56 661.275 586.655 668.725 583.395 676.545C578.835 687.475 570.045 695.945 570.675 708.56C571.885 732.88 601.069 740.625 599 767.62C598.165 778.515 590.695 787.725 590.1 792.365C588.375 805.83 598.535 803.655 584.235 819.455C602.422 817.51 613.902 807.61 599.59 791.115C601.119 788.895 602.856 786.465 604.163 784.12C613.395 767.595 604.358 748.315 598.865 731.745C615.023 749.705 617.944 758.995 614.409 782.765C617.253 776.92 620.752 769.91 621.694 763.475C623.824 748.92 616.471 740.18 620.732 724.875C626.17 705.345 645.162 699.965 652.916 681.87C660.977 663.06 646.013 652.27 650.679 636.335C651.585 633.24 656.652 627.76 659.023 625.13C657.89 633.555 659.6 640.635 664.784 647.38C665.791 648.68 666.831 649.955 667.903 651.205C661.457 647.26 658.784 645.385 655.655 638.26C656.049 647.135 658.059 651.24 661.133 659.425C673.543 692.47 625.781 702.13 626.306 730.825C626.687 751.62 655.256 756.185 653.789 778.665C653.703 786.18 653.319 789.455 650.008 796.545C663.174 781.71 663.424 767.16 653.172 750.425C669.067 765.665 669.475 787.955 654.454 804.645C649.674 809.955 639.965 815.595 633.848 819.625C639.816 819.445 644.757 819.46 650.289 816.965C664.16 810.71 675.328 799.275 678.03 784.025L678.368 783.775C679.888 801.44 670.457 809.52 659.107 820.805C680.59 814.29 693.743 802.49 687.427 777.67C686.197 772.835 682.98 769.555 680.619 765.315C672.537 749.39 685.825 732.19 697.038 722.51C709.775 711.51 713.964 697.265 711.601 681.125C717.535 698.35 714.15 712.97 702.752 726.735C710.865 720.535 718.734 715.605 719.979 704.51C721.72 688.985 715.755 670.445 704.848 659.365C716.03 667.13 724.137 676.885 726.982 690.655C728.956 700.205 726.397 712.78 720.561 720.67C712.65 731.365 697.59 736.77 699.86 753.13C700.676 759.005 704.061 764.525 705.592 770.62C695.602 761.055 691.871 752 694.449 738.04C685.914 753.445 691.37 757.475 694.958 771.685C701.36 797.05 682.784 820.015 661.178 829.725C675.868 829.665 685.36 828.035 696.262 816.965C706.551 806.515 708.657 798.155 709.975 784.285C711.724 795.865 711.747 804.475 705.658 815.045C711.854 811.675 716.428 806.555 718.385 799.675C725.466 774.775 705.675 760.69 709.046 748.335C713.802 730.91 740.532 726.57 738.081 708.835C736.773 707.995 737.387 708.355 735.423 708.365C735.293 706.47 738.026 702.765 738.458 700.71C740.469 691.135 737.853 680.2 733.5 671.945C743.061 681.505 749.195 694.18 749.738 708.015C750.597 729.91 725.348 737.065 729.644 759.67C731.814 771.085 739.572 776.485 742.786 787.6C736.654 779.31 730.993 774.31 724.662 764.925C728.754 792.845 732.035 815.135 703.991 831.285C732.063 830.85 744.465 814.195 742.199 787.045C751.25 807.32 744.417 816.395 731.935 832.385C739.549 830.165 743.005 828.685 749.073 824.065C760.249 815.56 765.928 798.565 761.183 784.945C753.007 761.48 730.783 758.23 756.915 732.555C758.405 728.07 759.994 723.57 761.47 719.07C762.198 716.855 762.091 713.035 762.827 711.675C763.072 715.955 763.417 725.275 764.932 728.945C773.454 749.575 788.172 747.39 791.785 772.975C798.913 761.845 795.798 746.11 788.377 735.97C778.957 723.1 772.459 723.32 775.144 705.72C776.212 721.035 781.653 720.175 789.842 731.83C792.512 735.63 796.094 743.615 797.997 748.15C798.233 735.65 798.776 726.925 790.656 716.465C779.803 702.485 776.342 694.095 779.155 676.405C782.773 688.185 783.205 693.19 790.072 703.48C788.513 690.05 795.91 675.06 784.925 665.465C782.157 663.05 776.598 661.295 773.075 659.97C760.639 655.295 755.654 645.38 753.888 632.96C752.98 626.58 754.315 620.365 758.622 615.37C768.751 603.615 776.535 599.025 774.909 581.745C773.682 568.69 764.148 560.65 761.052 548.545C759.312 541.735 762.804 532.415 761.447 525.095C760.54 520.21 756.801 515.37 756.52 510.725C756.34 507.744 762.088 501.121 764.062 498.372C777.258 479.993 781.115 453.052 774.586 431.528C772.952 426.139 767.422 417.75 765.038 411.345C754.289 422.841 746.892 422.274 734.16 414.194C738.53 415.062 741.587 415.746 746.097 415C757.883 413.048 764.384 404.344 760.064 392.967L759.273 392.227C757.705 393.785 757.212 396.604 756.073 398.786C752.746 405.165 747.567 408.715 740.426 408.819C729.549 408.976 723.264 402.566 714.371 397.733C721.287 413.338 721.19 428.135 725.852 444.511C730.651 461.37 745.522 478.945 739.851 497.727C738.339 502.737 732.363 506.182 728.586 509.608C731.692 525.605 739.903 524.715 744.045 538.9C736.291 528.705 733.393 530.695 724.511 524.73C735.362 544.29 733.547 543.71 728.034 563.835C729.987 563.185 732.214 562.515 734.099 561.755C732.491 565.43 727.826 573.74 732.018 576.79C734.203 576.87 735.39 576.025 736.969 574.575C744.117 568.01 746.34 555.29 745.189 545.935C748.611 555.335 750.709 564.59 746.401 574.31C744.183 579.31 740.272 583.485 737.7 588.145C753.94 584.44 755.732 577.675 755.575 562.145C760.4 574.445 762.232 586.31 753.942 597.395C745.77 608.32 740.287 615.755 745.159 629.61C746.375 633.07 753.52 646.205 753.28 648.51C752.384 647.87 751.54 647.27 750.623 646.655L750.142 647.07C749.847 663.79 770.696 664.58 763.239 693.75C762.636 675.095 756.889 672.96 748.336 657.265C745.266 650.93 743.727 643.82 740.183 637.72C737.339 632.82 733.052 628.925 730.756 623.68C729.287 620.33 728.678 617 727.95 613.53C726.93 608.665 726.694 602.71 722.93 599.14C721.61 597.89 719.555 597.005 717.891 596.395C713.593 597.475 710.8 598.395 706.613 599.905C714.12 606.05 716.673 609.53 722.036 617.725C704.186 599.57 701.282 601.41 675.11 600.635C661.999 600.245 649.528 601.975 638.323 609.515L637.478 610.075L636.976 610.42C641.413 604.645 643.499 602.855 649.283 598.35C643.102 597.635 636.934 596.82 631.701 601.03C621.421 609.295 625.573 625.09 605.755 636.89C600.498 640.02 595.535 641.69 589.33 641.565C590.7 629.345 593.77 617.005 584.525 606.995C574.395 596.015 570.205 587.025 571.825 571.9C573.385 557.38 581.12 542.7 592.81 533.785C582.36 548.525 573.08 571.105 587.325 585.82C602.818 601.825 607.73 609.91 598.735 632.155C607.015 626.725 611.19 621.225 613.191 611.615C615.22 601.875 613.354 585.085 606.84 577.3C592.27 559.89 597.065 540.22 615.969 527.64C617.365 526.71 618.808 525.855 620.291 525.07L619.696 525.755C611.937 534.575 604.311 541.655 604.685 554.805C604.918 562.965 611.886 578.43 620.171 580.695C627.556 578.91 619.781 561.395 619.203 556.51C617.456 541.725 625.302 528.965 638.078 521.885C624.46 535.2 621.261 549.745 629.477 567.35C637.981 564.82 639.363 560.085 639.104 551.535C638.543 533.065 644.352 527.115 658.063 516.157C641.595 515.258 637.457 511.497 629.397 497.692C619.061 508.998 619.597 511.012 605.75 518.575C611.046 512.316 616.462 506.357 620.919 499.465C625.191 492.86 629.663 480.44 634.501 474.935C643.452 464.75 651.292 466.162 659.303 452.726C659.841 457.348 661.231 463.436 657.888 467.302C654.613 471.089 649.612 472.609 645.152 475.405C636.584 480.777 637.377 494.495 644.021 500.895C647.432 504.18 653.768 500.122 657.418 499.237C660.757 498.466 665.519 497.105 669.043 497.25C681.064 497.743 691.043 499.758 703.356 498.985C711.443 498.478 724.981 502.942 731.315 494.339C733.974 490.44 734.078 483.245 732.921 478.837C730.175 468.365 723.165 461.52 719.514 450.603C716.4 441.291 715.31 434.81 713.397 425.351C711.834 417.876 710.156 410.425 708.366 403.002C706.572 395.44 703.757 387.126 702.52 379.574C702.187 377.544 703.899 373.19 705.047 371.385C710.193 363.296 713.13 359.79 714.427 349.852C725.63 352.358 724.068 350.886 734.051 348.649C743.933 352.048 748.146 351.677 758.496 350.543C769.428 349.346 780.502 351.951 788.395 360.048C785.143 335.958 770.87 320.196 763.279 297.73C758.906 284.788 765.549 274.304 764.698 261.211C764.004 250.513 760.629 246.692 756.432 237.392C752.753 229.24 750.006 220.67 745.664 212.536C735.967 194.37 720.128 176.715 703.999 163.924C697.4 158.69 691.026 155.493 683.385 152.356C689.462 162.935 692.96 168.281 693.253 180.644C685.361 158.432 668.994 140.25 647.731 130.075C637.798 125.312 628.159 123.275 617.345 122.089Z" fill="white"/>
<path d="M650.798 270.792C644.439 270.282 635.758 271.504 629.279 272.212C641.659 273.015 660.201 275.969 670.654 283.255C684.703 293.044 690.313 317.484 695.669 332.809C700.246 345.907 710.006 363.58 689.427 367.689C686.073 368.358 677.253 369.761 674.425 367.908C671.755 359.97 684.215 351.916 685.979 344.605C687.33 339.005 686.174 330.231 685.696 324.369C684.609 331.556 683.759 339.942 678.383 345.346C667.32 356.466 646.131 348.965 632.58 347.051C618.478 345.085 604.221 344.469 590 345.211C571.645 346.106 558.965 348.775 541.95 356.099C523.56 364.014 515.675 375.427 495.44 375.765C502.86 387.132 509.2 391.541 523.145 390.757C535.925 389.116 548.705 375.627 561.26 369.813C577.21 362.424 596.33 360.775 613.168 366.125C626.155 369.186 630.498 382.28 639.067 389.004C650.974 398.348 659.715 392.666 650.865 413.065C654.885 409.258 657.334 406.867 659.774 402.044C662.894 395.876 665.266 380.786 671.58 377.071C680.677 371.719 694.329 375.023 703.345 365.378C712.899 355.155 701.881 340.551 698.351 329.163C695.732 320.851 691.796 308.242 691.08 299.562C689.668 282.461 725.961 280.073 737.095 279.234C725.418 277.409 707.338 275.445 696.326 279.511C691.916 281.14 688.602 283.489 684.763 286.172C674.978 275.557 664.825 271.934 650.798 270.792Z" fill="black"/>
<path d="M600.102 368.276C575.355 365.184 555.255 376.477 536.745 391.44C542.33 398.211 552.615 402.109 560.865 404.296C550.66 396.711 545.165 388.307 560.42 382.201C562.16 397.285 570.29 404.937 585.63 404.57C600.813 402.008 607.04 391.985 606.528 377.279C622.551 389.051 612.756 399.44 599.52 406.814C607.345 405.166 614.619 402.728 622.31 400.643C626.676 399.459 635.63 401.938 638.287 397.633C638.43 395.356 637.43 393.299 635.9 391.586C624.09 378.359 618.646 370.501 600.102 368.276Z" fill="black"/>
<path d="M520.66 173.955C503.44 179.456 495.555 174.243 478.245 174.654C468.22 174.893 455.475 178.77 445.61 181.461C446.97 182.541 448.405 183.566 449.805 184.596C472.07 195.831 483.12 188.421 505.295 183.241C511.44 181.807 516.31 178.203 520.66 173.955Z" fill="black"/>
<path d="M444.895 388.443C443.925 393.067 444.215 397.802 442.775 402.759C440.91 409.155 436.375 416.816 435.365 423.153C431.225 449.228 454.42 450.432 466.175 468.269C467.345 470.436 468.565 473.445 469.58 475.752C468.965 471.313 468.69 468.298 467.325 464.011C463.19 451.005 449.58 447.971 445.535 435.16C442.63 425.96 446.26 417.419 447.04 408.209C447.69 400.535 447.105 395.64 444.895 388.443Z" fill="black"/>
<path d="M622.121 653.38C619.525 659.635 618.819 666.76 616.22 673.145C612.555 682.16 606.227 690.115 603.521 699.505C601.252 707.38 602.708 713.565 606.594 720.575L609.167 724.085C608.983 718.415 608.446 712.435 609.736 706.87C611.176 700.655 614.202 695.635 617.494 690.27C624.776 678.395 625.315 666.775 622.121 653.38Z" fill="black"/>
<path d="M511.51 490.905C509.125 493.163 508.675 506.572 501.685 511.707C491.32 519.33 475.15 517.81 471.98 532.525C471.05 536.835 471.22 541.54 473.64 545.375C474.5 546.575 474.51 546.875 475.79 547.5C477.105 546.26 477.055 543.405 477.805 541.43C478.84 538.71 480.35 536.795 481.785 534.51C488.07 524.47 498.73 523.86 505.575 515.075C510.66 508.548 512.46 499.012 511.51 490.905Z" fill="black"/>
<path d="M683.861 406.64C682.638 418.347 681.427 429.993 679.987 441.71C678.845 451.013 671.219 460.788 674.473 469.184C676.501 474.418 681.587 479.023 686.624 481.313C688.634 481.309 688.4 481.636 689.69 480.674C689.516 479.081 680.718 467.539 681.046 461.068C681.418 453.737 683.404 451.892 685.857 445.433C689.681 435.367 686.493 417.099 683.861 406.64Z" fill="black"/>
<path d="M561.265 135.636C561.88 145.058 595.29 151.862 603.189 155.029C608.282 157.017 612.983 159.892 617.073 163.52C622.356 168.204 626.842 174.708 628.055 181.811C628.391 183.778 628.073 186.75 628.202 189.12L628.682 189.021C632.738 179.418 630.75 172.764 625.51 164.385C611.778 142.426 577.295 150.175 561.265 135.636Z" fill="black"/>
<path d="M563.265 553.945C563.04 554.06 562.815 554.17 562.585 554.28C545.455 567.2 547.85 591.205 545.755 608.955C544.115 622.89 533.6 630.05 523.855 636.535C527.74 635.72 535.375 632.255 538.665 629.695C557.545 615.02 549.445 595.27 553.555 575.26C555.45 566.05 558.085 561.305 563.265 553.945Z" fill="black"/>
<path d="M678.483 614.865C676.65 616.415 676.336 621.29 676.303 623.54C676.168 632.53 684.997 635.765 690.434 641.275C675.294 641.705 670.771 637.33 670.037 622.465C667.404 627.04 666.361 629.155 666.634 634.375C670.331 646.095 681.68 647.205 691.945 649.455C693.645 649.83 694.611 649.51 695.912 648.545C697.746 642.39 683.429 631.725 680.831 626.68C679.481 624.06 678.859 617.89 678.483 614.865Z" fill="black"/>
<path d="M679.843 676.985C679.06 677.84 677.383 689.66 676.207 692.28C672.738 700.025 666.266 705.58 662.188 712.805C657.459 721.18 657.508 729.5 660.058 738.49L660.549 739.13L660.964 738.935C659.508 721.75 677.39 709.4 680.182 692.865C681.086 687.505 680.493 682.34 679.843 676.985Z" fill="black"/>
<path d="M466.455 208.102C466.26 209.29 467.375 211.761 467.575 213.133C468.405 218.404 469.015 224.248 472.89 228.342C481.53 237.467 492.745 234.646 500.845 227.107C502.54 225.185 503.455 223.365 504.73 221.156C487.235 233.57 477.125 219.978 466.455 208.102Z" fill="black"/>
<path d="M689.251 671.945C688.459 676.14 689.594 686.815 689.394 692.025C688.828 706.73 679.766 712.58 674.061 724.535L674.351 724.805L676.234 722.955C682.09 717.23 690.402 713.215 693.489 705.165C697.521 694.655 693.822 681.645 689.251 671.945Z" fill="black"/>
<path d="M471.965 445.61C471.825 446.545 474.22 450.342 474.845 451.5C482.875 466.418 482.99 481.524 477.07 497.388L480.97 492.855C485.295 487.017 488.16 482.086 487.895 474.347C487.525 463.526 479.86 452.54 471.965 445.61Z" fill="black"/>
<path d="M695.782 617.04C695.712 627.785 698.23 633.845 706.458 641.015C716.908 650.125 728.925 649.005 737.976 660.215L738.668 660.16C737.888 658.76 735.439 654.275 734.547 653.205C728.35 645.75 717.956 644.97 710.577 638.37C703.653 632.18 699.909 625.11 695.782 617.04Z" fill="black"/>
<path d="M574.445 617.43C572.705 624.83 574.585 628.235 570.835 638.595C566.13 651.59 548.945 660.53 546.2 668.295L546.715 668.19C554.875 660.165 566.675 657.04 572.64 646.01C577.84 636.385 577.3 627.535 574.445 617.43Z" fill="black"/>
<path d="M459.705 315.445C458.435 316.634 455.215 321.696 454.005 323.351C449.17 329.972 442.54 332.368 435.07 334.766C433.185 335.371 431.79 337.842 429.405 338.207C423.6 339.095 416.825 335.027 412.865 331.018C411.435 329.57 411.18 328.363 409.16 326.817L408.565 327.29L408.7 329.135C423.685 354.789 453.015 337.203 459.705 315.445Z" fill="black"/>
<path d="M469.335 504.781L468.34 502.697L468.12 503.372C463.305 517.58 442.305 528.75 465.04 543.77C452.74 526.975 467.545 520.18 469.23 505.662L469.335 504.781Z" fill="black"/>
<path d="M415.9 311.624L415.845 312.269C420.225 321.122 425.84 328.401 437.25 326.256C442.31 325.305 445.73 322.312 448.575 318.125L451.35 312.453C437.225 325.87 429.78 322.283 415.9 311.624Z" fill="black"/>
<path d="M650.935 618.81C646.772 625.215 643.915 626.58 638.503 631.625C631.446 638.2 631.378 645.985 638.256 652.445C639.783 653.485 639.198 653.43 640.792 653.56C638.422 646.44 634.751 642.785 640.709 635.675C645.803 629.595 649.92 627.22 650.935 618.81Z" fill="black"/>
<path d="M596.24 676.53C595.79 676.9 595.35 677.285 594.92 677.685C589.15 683.105 584.805 690.93 584.69 698.99C584.585 706.705 588.51 712.57 593.745 717.795C594.475 718.345 595.25 719.255 596.165 719.17C593.555 715.18 591.075 711.525 589.8 706.84C586.69 695.425 590.61 686.32 596.24 676.53Z" fill="black"/>
<path d="M518.995 512.496C518.16 513.925 517.39 516.394 516.05 518.525C508.07 531.165 497.745 525.755 488.795 532.625C503.245 533.035 518.07 529.785 518.995 512.496Z" fill="black"/>
<path d="M502.445 479.931C501.665 481.917 501.27 484.453 500.4 486.591C496.685 495.687 491.615 500.341 484.07 506.094C499.43 503.358 502.86 493.956 502.445 479.931Z" fill="black"/>
<path d="M404.365 257.128L403.94 257.264C405.835 258.986 408.88 260.478 411.7 263.028C423.4 273.603 427.15 281.76 443.96 282.239L444.52 282.328L444.45 281.919C422.37 276.975 420.13 263.89 404.365 257.128Z" fill="black"/>
<path d="M748.781 229.479C749.186 234.208 750.644 239.458 751.112 244.533C752.027 254.452 750.327 262.762 749.751 272.155L750.073 271.824C755.652 259.491 754.951 241.361 748.781 229.479Z" fill="black"/>
<path d="M649.217 708.415C646.242 710.13 643.202 714.505 642.044 717.65C639.643 724.18 640.976 729.67 643.817 735.715L644.805 736.7C645.002 736.335 643.77 727.76 643.815 726.015C643.987 719.36 646.088 714.19 649.217 708.415Z" fill="black"/>
<path d="M710.817 620.35C710.506 632.4 721.576 639.175 730.136 645.585C730.58 643.985 727.521 641.79 726.332 640.805C718.434 634.27 714.198 630.245 710.817 620.35Z" fill="black"/>
<path d="M507.37 603.25C503.795 616.215 505.38 616.09 494.19 626.215C505.075 622.85 508.005 613.64 507.37 603.25Z" fill="black"/>
<path d="M513.945 562.455C505.51 565.675 502.335 575.735 504.09 584.045C504.61 583.97 504.84 577.665 505.315 575.865C506.94 569.68 509.805 566.87 513.945 562.455Z" fill="black"/>
<path d="M531.195 553.015C525.755 553.955 522.265 555.815 517.73 558.73C521.795 558.27 527.785 555.41 531.195 553.015Z" fill="black"/>
<path d="M469.335 504.781C469.955 501.691 469.47 497.695 469.04 494.601L468.34 502.697L469.335 504.781Z" fill="black"/>
<path d="M737.976 660.215C739.106 662.08 739.382 662.605 740.845 664.17H741.476C740.802 662.275 740.052 661.695 738.668 660.16L737.976 660.215Z" fill="black"/>
<path d="M379.935 552.94C379.06 556.39 379.44 568.01 379.57 572.215C380.03 587.1 381.87 602.09 383.535 616.895C385.73 636.375 388.845 658.39 384.625 677.795C381.86 690.49 376.06 700.515 365.04 707.59C366.9 711.195 369.255 715.02 371.35 718.52C389.605 749.03 407.24 779.915 424.86 810.8C434.22 826.985 443.3 843.33 452.11 859.825C461.42 876.96 470.855 894.52 481.98 911.355C490.945 924.925 506.985 947.96 521.025 957.45C527.6 960.1 537.745 961.56 544.255 962.95C567.415 967.905 589.12 968.785 612.703 968.74C649.413 968.92 686.041 965.245 721.983 957.77C730.18 956.115 745.355 953.52 752.454 950.765C751.289 944.915 745.675 929.94 742.171 925.205C715.418 922.72 712.572 918.635 696.539 898.44C693.567 912.305 693.635 914.295 682.785 924.055L675.386 930.17C683.654 912.175 691.354 895.985 693.997 875.885C694.498 872.08 697.366 864.625 693.441 862.305C690.306 865.6 684.913 873.465 681.941 877.5C673.444 888.9 665.214 900.495 657.256 912.275C656.956 903.49 657.314 895.56 657.696 886.77C633.134 895.86 625.061 922.985 591.29 914.6C562.94 907.56 542.055 882.385 526.68 859.61C535.66 866.235 545.23 869.87 555.39 874.295C539.2 861.545 522.985 844.68 512 827.13C508.605 821.71 507.075 814.875 503.675 809.7C500.715 805.425 497.065 801.65 493.675 797.705C477.15 778.49 462.12 755.2 454.595 730.825C450.4 717.235 447.095 704.425 442.345 690.9C441.195 700.78 440.96 702.915 435.63 711.535C437.135 677.41 414.77 664.01 405.385 633.49C401.405 620.535 402.37 608.905 400.76 596.105C400.4 593.24 391.075 585.3 388.755 581.405C383.24 572.145 382.365 563.095 379.935 552.94Z" fill="white"/>
<path d="M488.255 897.605L487.815 897.94C491.955 902.255 496.74 906.52 501.525 910.1C528.125 929.995 573.775 952.8 606.709 956.805C616.761 958.03 626.318 957.415 636.276 955.94C637.272 955.755 638.267 955.565 639.261 955.37L639.453 954.875C635.357 953.27 630.767 952.495 626.53 951.205C615.787 947.93 605.089 944.515 594.435 940.955C558.455 928.835 522.205 914.66 488.255 897.605Z" fill="black"/>
<path d="M358.15 647.43C344.69 650.565 329.265 657.24 321.02 668.91C318.455 672.535 317.18 676.455 316.875 680.87C315.955 694.015 320.75 707.98 323.995 720.61C326.425 730.05 328.75 739.4 330.555 748.985C333.6 765.185 338.37 786.46 328.385 801.06C317.88 766.395 311.795 729.695 307.94 693.72C296.355 710.07 286.855 730.58 286.395 750.935C275.615 736.425 275.025 726.285 282.635 710.02C270.05 722.465 264.88 731.675 270.31 749.425C288.42 808.6 327.38 881.385 380.89 913.64C380.055 887.48 378.72 871.695 374.05 845.98C368.73 817.975 363.3 797.265 351.545 771.125C383.15 797.78 394.105 866.39 407.975 904.71C412.465 917.12 415.325 922.475 421.535 934.17C435.635 942.29 463.84 950.91 479.505 955.35C460.67 920.78 442.08 882.56 424.36 847.255C406.3 811.78 388.005 776.42 369.475 741.185C363.22 729.375 356.73 717.685 350.01 706.105C346.205 699.55 335.815 686.93 335.84 679.9C335.885 667.325 349.625 655.585 358.15 647.43Z" fill="white"/>
<path d="M288.7 766.985C288.71 767.3 288.695 767.615 288.73 767.925C289.395 773.78 291.785 780.465 293.585 786.11C303.69 817.79 322.675 853.99 348.38 875.515C348.31 873.465 335.69 855.115 333.635 851.41C318.13 823.44 302.365 795.935 288.7 766.985Z" fill="black"/>
<path d="M359.105 350.705C352.31 350.036 345.675 350.437 339.335 353.162C329.185 357.527 322 366.066 317.995 376.205C308.13 401.197 314.57 436.746 325.175 460.712C328.5 468.226 332.365 475.708 336.92 482.546C344.895 494.515 375.315 532.785 387.475 537.22C392.32 538.985 397.66 539.345 402.37 536.96C406.44 534.9 409.195 531.19 410.6 526.91C415.05 513.344 408.835 508.116 403.395 497.471C406.495 488.613 408.495 479.693 403.555 471.083C397.64 460.773 398.08 453.773 399.85 442.532C394.515 430.998 392.995 433.625 393.055 418.552C381.065 430.881 372.61 447.013 387.765 462.502C389.58 464.352 394.955 467.997 395.795 470.417C401.47 486.859 378.03 479.3 371.79 476.653C360.615 471.589 354.93 465.319 353.24 452.881C356.505 459.454 365.23 473.346 374.085 470.627C376.15 468.72 375.315 465.825 374.22 463.558C367.815 450.288 368.475 443.109 371.58 428.641C367.735 433.27 360.325 446.653 354.445 446.368C351.145 442.596 357.455 431.714 357.62 427.234C357.835 421.215 348.31 416.88 348.255 411.569C350.22 406.503 363.675 406.821 364.815 395.833C366.365 380.834 353.685 380.617 343.9 387.892C331.66 396.997 325.665 404.804 323.155 420.095C320.105 397.79 324.375 370.657 352.65 368.565C357.56 368.202 362.285 370.416 366.2 373.197C377.38 381.133 375.345 395.311 382.41 405.221C386.87 411.011 396.92 401.061 394.865 395.056C393.69 391.639 391.07 395.442 387.87 393.542C387.785 391.354 391.735 386.752 391.625 385.487C390.07 367.231 374.99 354.042 359.105 350.705Z" fill="white"/>
<path d="M338.8 410.82C334.135 417.142 331.955 435.082 332.81 442.999C335.4 467.038 348.4 482.916 365.76 497.811L367.615 499.248L368.1 498.8C367.11 482.486 353.98 477.999 346.605 465.319C336.475 447.919 335.875 430.058 338.8 410.82Z" fill="black"/>
<path d="M379.535 501.11C379.39 501.625 379.46 501.248 379.66 502.256C383.3 507.001 388.785 509.877 394.645 510.785C393.965 509.288 386.21 506.194 384.225 504.707C382.675 503.545 381.1 502.461 379.535 501.11Z" fill="black"/>
<path d="M776.522 815.595L776.124 815.945C776.736 819.09 783.088 827.335 785.213 830.715C797.477 850.22 814.527 876.44 820.972 898.18C823.167 905.585 824.115 913.04 824.629 920.72C828.095 918.28 831.438 915.64 834.815 913.075C838.201 909.99 840.945 906.49 843.527 902.72C830.139 871.715 806.544 832.8 776.522 815.595Z" fill="white"/>
<path d="M660.387 570.79C654.038 570.295 648.338 569.945 642.974 574.205C640.545 576.135 637.974 579.6 637.828 582.805C637.756 584.395 638.351 585.945 639.471 587.075C646.088 593.69 682.503 593.63 692.286 593.72C697.638 593.635 705.259 593.08 710.085 590.375C715.128 587.67 714.391 578.97 711.502 575.05C708.215 570.75 701.142 571.375 696.355 572.19C684.029 574.285 672.718 572.17 660.387 570.79Z" fill="white"/>
<path d="M772.834 843.545C770.366 843.72 768.287 844.265 766.534 846.095C765.779 850.15 773.132 861.645 775.191 865.685C787.014 888.9 795.7 909.34 804.364 933.775L807.843 931.475C811.528 929.53 815.021 927.15 818.542 924.92C812.305 898.935 791.692 862.655 772.834 843.545Z" fill="white"/>
<path d="M326.625 299.554L326.26 300.015C325.84 302.098 325.22 306.547 325.845 308.584C332.455 330.263 357.535 310.924 373.745 318.71C394.585 328.721 393.06 349.803 409.04 363.16C413.56 366.941 421.535 366.902 426.99 365.803C428.5 365.006 429.32 364.786 429.825 363.419C427.905 361.522 417.675 362.46 410.245 353.65C399.055 339.392 401.97 328.037 386.54 315.653C366.71 299.739 335.43 326.498 326.625 299.554Z" fill="white"/>
<path d="M575.875 742.6C576.2 746.63 577.255 750.395 577.205 754.495C577.045 766.685 573.955 781.715 565.025 790.475C566.105 792.075 567.37 793.99 569.16 794.845C572.105 796.25 575.07 794.815 577.86 793.755C580.51 792.225 582.99 790.395 585.035 788.115C590.01 782.67 592.53 775.42 592.005 768.06C591.15 757.27 583.84 749.15 575.875 742.6Z" fill="white"/>
<path d="M770.77 800.165C784.672 781.005 772.046 759.99 761.016 744.26C759.297 741.805 759.165 735.795 756.915 732.555C752.794 742.665 747.405 752.69 756.028 762.18C768.102 775.475 770.33 782.625 770.77 800.165Z" fill="white"/>
<path d="M698.103 540.63C692.391 540.125 691.076 541.225 686.269 544.205C684.853 543.38 683.58 542.71 682.012 542.19C679.012 541.225 675.749 541.52 672.97 543.005C669.267 544.99 665.971 549.785 668.577 553.88C670.028 556.165 672.899 556.615 675.322 557.225C682.692 558.385 690.156 558.86 697.515 557.365C711.534 554.515 709.553 546.035 698.103 540.63Z" fill="white"/>
<path d="M748.319 876.52C748.328 883.08 761.411 917.265 764.1 925.065C766.604 932.33 768.677 939.735 771.378 946.93L778.984 945.075C779.595 944.91 780.132 944.615 780.7 944.34C781.309 939.25 762.84 900.975 758.987 893.86C755.734 887.855 752.161 882.16 748.319 876.52Z" fill="white"/>
<path d="M350.495 247.884C347.345 252.295 346.77 263.122 351.455 266.488C362.165 274.182 376.005 264.706 388.025 269.744C395.78 272.993 399.535 276.542 405.8 282.021L406.99 282.952L407.28 282.473C406.01 279.753 403.6 274.273 402 271.965C385.595 248.307 365.685 276.828 350.495 247.884Z" fill="white"/>
<path d="M320.8 314.012C319.415 316.146 319.45 324.703 319.85 327.466C322.34 344.696 340.915 335.46 352.345 337.882C360.66 339.645 368.065 344.307 374.76 349.188L375.375 349.369L375.825 349.078C353.67 313.477 329.16 345.896 320.8 314.012Z" fill="white"/>
<path d="M563.325 735.01C562.53 735.985 562.61 737.815 562.475 739.025C561.175 750.5 553.95 760.76 545.135 767.775C541.815 770.42 538.135 772.56 534.84 775.22C535.4 776.44 536.77 777.035 537.87 777.79C540.9 779.015 543.31 779.46 546.545 778.655C552.66 777.13 558.035 772.125 561.23 766.815C567.425 756.535 566.015 746.11 563.325 735.01Z" fill="white"/>
<path d="M670.685 518.13C646.045 517.905 642.937 538.89 646.702 558.01C646.815 558.795 646.669 558.365 647.352 559.205C650.337 558.765 654.467 553.055 654.554 550.87C655.27 532.905 658.603 530.035 670.685 518.13Z" fill="white"/>
<path d="M780.426 593.485C779.215 594.54 775.899 603.135 773.931 605.275C764.445 615.6 756.712 625.41 760.727 640.34C762.644 647.47 766.067 650.815 772.396 654.38C774.327 655.05 776.582 655.675 778.562 656.28C772.905 651.145 769.013 647.405 766.46 640.015C761.948 626.95 773.495 620.68 777.954 610.115C780.185 604.83 780.352 599.195 780.426 593.485Z" fill="white"/>
<path d="M768.74 526.41C767.283 531.39 768.995 545.005 770.374 550.245C772.559 558.555 778.202 567.395 782.832 574.59C787.295 549.86 778.031 548.26 768.74 526.41Z" fill="white"/>
<path d="M631.684 757.57C632.164 761.225 634.991 766.12 635.761 770.875C638.036 784.93 635.69 796.15 627.35 807.65L632.944 804.675C634.986 803.57 636.871 802.32 638.512 800.66C643.266 795.86 645.304 789.645 645.284 782.97C645.252 771.955 639.091 764.845 631.684 757.57Z" fill="white"/>
<path d="M750.602 369.213C734.209 368.424 727.548 370.435 716.428 382.911C724.699 376.931 731.46 374.564 741.522 374.152C754.307 375.449 759.894 378.986 767.108 389.812C766.677 376.295 764.049 372.351 750.602 369.213Z" fill="white"/>
<path d="M782.52 624.33C775.11 639.765 783.431 648.86 792.728 659.81L793.546 660.46C794.534 658.575 793.976 656.165 794.084 654.095C794.687 642.505 787.376 634.83 782.827 625L782.52 624.33Z" fill="white"/>
<path d="M716.252 527.12C717.22 530.69 719.328 534.33 719.605 537.94C720.129 544.75 718.76 552.04 719.739 558.83C719.942 560.235 720.007 560.09 720.826 560.6C722.447 560.09 723.245 558.98 724.456 557.735C733.014 545.87 726.956 534.445 716.252 527.12Z" fill="white"/>
<path d="M425.405 593.425C422.7 611.66 404.725 630.775 430.905 644.28C432.035 644.625 431.53 644.685 432.425 644.32C423.205 636.615 418.485 626.745 422.01 614.595C424.245 606.895 429.835 601.435 425.405 593.425Z" fill="white"/>
<path d="M678.537 522.06C677.756 522.015 677.9 522.01 676.866 522.005C672.656 521.995 668.625 523.7 665.702 526.73C660.678 531.86 660.191 537.555 660.221 544.235C665.769 540.29 677.049 529.03 678.537 522.06Z" fill="white"/>
<path d="M428.32 241.928C425.705 244.421 428.63 260.303 433.79 262.518C437.915 264.289 437.975 264.828 442.675 265.913C443.005 264.828 440.695 263.12 439.49 261.784C434.325 256.059 431.4 248.886 428.32 241.928Z" fill="white"/>
<path d="M488.34 703.045C486.52 710.665 489.155 717.81 490.235 725.3L490.355 726.145L491.17 725.73C492.35 723.625 493.51 721.39 493.955 719C495.14 712.705 491.685 707.97 488.34 703.045Z" fill="white"/>
<path d="M677.811 507.772C677.374 507.781 677.688 507.746 676.951 508.17C678.59 510.175 683.396 511.576 685.941 512.414L691.437 511.161C692.195 510.987 693.098 510.63 693.849 510.365C689.76 510.598 682.77 508.373 677.811 507.772Z" fill="white"/>
<path d="M322.75 342.187L322.39 342.665C322.895 345.055 322.785 346.213 325.055 347.375L326.395 346.647C327.475 345.985 327.595 345.922 328.51 345.054L327.89 344.418C325.485 343.82 324.81 343.558 322.75 342.187Z" fill="white"/>
</svg>
